<svg width="280" height="292" viewBox="0 0 280 292" fill="none" xmlns="http://www.w3.org/2000/svg">
<path d="M272.46 123.264H265.968V116.772V110.28V103.788H259.476V97.3026V90.8106H252.991V84.3185V77.8265H246.499V71.3415H240.007V64.8495V58.3646H233.522V51.8725H227.03H220.538V45.3805H214.053V38.8885H207.561H201.069V32.4035H194.577H188.092V25.9115H181.6H175.108H168.616V19.4194H162.131H155.639H149.147H142.662H136.17H129.678H123.193H116.701H110.209V25.9115H103.724H97.232H90.74V32.4035H84.2479H77.763V38.8885H71.2709H64.7789V45.3805H58.2869V51.8725H51.8019H45.3099V58.3646H38.8178V64.8495V71.3415H32.3329V77.8265H25.8408V84.3185V90.8106H19.3488V97.3026V103.788H12.8639V110.28V116.772V123.264H12.8568H6.37182H6.36475V129.749V136.241V142.733V149.225V155.71V162.202V168.694V175.179V181.671H6.37182H12.8568V188.163V194.648V201.14H19.3488V207.632V214.117H25.8408V220.609V227.101H32.3258V233.593H38.8178V240.078V246.57H45.3099V253.062H51.8019H58.2869V259.554H64.7789V266.039H71.2709H77.763V272.531H84.2479H90.74V279.023H97.2249H103.717H110.209V285.508H116.694H123.186H129.678H136.17H142.655H149.147H155.639H162.131H168.623V279.023H175.108H181.6H188.092V272.531H194.577H201.069V266.039H207.554H214.046V259.554H220.538V253.062H227.03H233.515V246.57H240.007V240.078V233.593H246.499V227.101H252.991V220.609V214.117H259.476V207.632V201.14H265.968V194.648V188.163V181.671H272.46V175.179V168.694V162.202V155.71V149.225V142.733V136.241V129.749V123.264Z" fill="#0DFFA8"/>
<path d="M272.58 123.264V129.749V136.241V142.733V149.225V155.71V162.202V168.694V175.179V181.671H279.072V175.179V168.694V162.202V155.71V149.225V142.733V136.241V129.749V123.264H272.58Z" fill="black"/>
<path d="M6.49203 168.694V162.202V155.71V149.225V142.733V136.241V129.749V123.264H0V129.749V136.241V142.733V149.225V155.71V162.202V168.694V175.179V181.671H6.49203V175.179V168.694Z" fill="black"/>
<path d="M266.088 116.772V123.264H272.58V116.772V110.28V103.788H266.088V110.28V116.772Z" fill="black"/>
<path d="M253.111 90.8107H259.596V97.3028V103.788H266.088V97.3028V90.8107V84.3187H259.596V77.8267H253.111V84.3187V90.8107Z" fill="black"/>
<path d="M240.127 71.3417H246.62V77.8267H253.112V71.3417V64.8497H246.62V58.3647H240.127V64.8497V71.3417Z" fill="black"/>
<path d="M240.127 51.8726H233.642V58.3646H240.127V51.8726Z" fill="black"/>
<path d="M220.658 45.3805V51.8725H227.15H233.643V45.3805H227.15V38.8884H220.658H214.173V45.3805H220.658Z" fill="black"/>
<path d="M194.697 32.4037H201.189V38.8886H207.681H214.174V32.4037H207.681V25.9116H201.189H194.697H188.212V32.4037H194.697Z" fill="black"/>
<path d="M175.228 25.9115H181.72H188.212V19.4194H181.72H175.228H168.736V25.9115H175.228Z" fill="black"/>
<path d="M123.313 19.4195H129.798H136.29H142.782H149.267H155.759H162.251H168.736V12.9275H162.251H155.759H149.267H142.782H136.29H129.798H123.313H116.821H110.329V19.4195H116.821H123.313Z" fill="black"/>
<path d="M103.844 25.9115H110.329V19.4194H103.844H97.3522H90.8602V25.9115H97.3522H103.844Z" fill="black"/>
<path d="M77.8832 38.8886V32.4037H84.3682H90.8602V25.9116H84.3682H77.8832H71.3912V32.4037H64.8991V38.8886H71.3912H77.8832Z" fill="black"/>
<path d="M58.4071 51.8725V45.3805H64.8991V38.8884H58.4071H51.9221V45.3805H45.4301V51.8725H51.9221H58.4071Z" fill="black"/>
<path d="M45.4301 51.8726H38.9381V58.3646H45.4301V51.8726Z" fill="black"/>
<path d="M32.4531 71.3417H38.938V64.8497V58.3647H32.4531V64.8497H25.961V71.3417V77.8267H32.4531V71.3417Z" fill="black"/>
<path d="M19.4691 97.3028V90.8107H25.9611V84.3187V77.8267H19.4691V84.3187H12.9841V90.8107V97.3028V103.788H19.4691V97.3028Z" fill="black"/>
<path d="M12.984 116.772V110.28V103.788H6.49197V110.28V116.772V123.264H12.984V116.772Z" fill="black"/>
<path d="M6.48496 181.671V175.179V168.694V162.202V155.71V149.225V142.733V136.241V129.749V123.264H0V129.749V136.241V142.733V149.225V155.71V162.202V168.694V175.179V181.671H6.48496Z" fill="black"/>
<path d="M272.58 136.241V142.733V149.225V155.71V162.202V168.694V175.179V181.671H279.072V175.179V168.694V162.202V155.71V149.225V142.733V136.241V129.749V123.264H272.58V129.749V136.241Z" fill="black"/>
<path d="M12.9769 188.163V181.671H6.48489V188.163V194.648V201.14H12.9769V194.648V188.163Z" fill="black"/>
<path d="M25.9611 214.117H19.4691V207.632V201.14H12.9771V207.632V214.117V220.609H19.4691V227.101H25.9611V220.609V214.117Z" fill="black"/>
<path d="M38.938 233.593H32.446V227.101H25.961V233.593V240.078H32.446V246.57H38.938V240.078V233.593Z" fill="black"/>
<path d="M45.4231 246.57H38.9381V253.062H45.4231V246.57Z" fill="black"/>
<path d="M58.4071 259.554V253.062H51.9221H45.4301V259.554H51.9221V266.039H58.4071H64.8991V259.554H58.4071Z" fill="black"/>
<path d="M84.3682 272.531H77.8832V266.039H71.3912H64.8991V272.531H71.3912V279.023H77.8832H84.3682H90.8602V272.531H84.3682Z" fill="black"/>
<path d="M103.837 279.023H97.3451H90.8602V285.508H97.3451H103.837H110.329V279.023H103.837Z" fill="black"/>
<path d="M155.759 285.508H149.267H142.782H136.29H129.798H123.306H116.814H110.329V292H116.814H123.306H129.798H136.29H142.782H149.267H155.759H162.251H168.743V285.508H162.251H155.759Z" fill="black"/>
<path d="M175.228 279.023H168.743V285.508H175.228H181.72H188.212V279.023H181.72H175.228Z" fill="black"/>
<path d="M201.189 266.039V272.531H194.697H188.212V279.023H194.697H201.189H207.674V272.531H214.166V266.039H207.674H201.189Z" fill="black"/>
<path d="M220.658 253.062V259.554H214.166V266.039H220.658H227.151V259.554H233.635V253.062H227.151H220.658Z" fill="black"/>
<path d="M240.127 246.57H233.635V253.062H240.127V246.57Z" fill="black"/>
<path d="M246.62 233.593H240.127V240.078V246.57H246.62V240.078H253.112V233.593V227.101H246.62V233.593Z" fill="black"/>
<path d="M259.596 207.632V214.117H253.111V220.609V227.101H259.596V220.609H266.088V214.117V207.632V201.14H259.596V207.632Z" fill="black"/>
<path d="M266.088 188.163V194.648V201.14H272.58V194.648V188.163V181.671H266.088V188.163Z" fill="black"/>
<path d="M227.943 110.251V116.743V123.228V129.72V136.212H234.427V129.72V123.228V116.743V110.251H227.943Z" fill="black"/>
<path d="M221.451 103.759V110.251H227.943V103.759V97.2745V90.7825H221.451V97.2745V103.759Z" fill="black"/>
<path d="M221.45 142.697V149.189V155.681V162.166V168.658V175.15V181.642V188.127V194.619V201.112V207.604V214.089V220.581V227.073V233.558V240.05V246.542V246.57H214.958H208.466H201.981H195.489V246.542V240.05H188.997V246.542V246.57H182.505H176.02V240.078V233.593V227.101V220.609V220.581V214.089V207.604V201.112V194.648V194.619V188.156V188.127V181.671V181.642V175.179H169.528V181.642V181.671V188.127V188.156V194.619V194.648V201.112V201.14V207.604V207.632V214.089V214.117V220.581V220.609V227.073V227.101V233.558V233.593V240.05V240.078V246.542V246.57V253.027V253.062V259.519V259.547H163.043H163.036H156.551H156.544H150.059H150.052H143.567H137.082H137.075H130.59H130.583H124.098H117.606H111.121H104.629H98.1371H91.6451H85.1601H78.6681H72.1761H65.684H59.1991H52.7071H46.215H39.723V266.039H46.215H52.7071H59.1991H65.684H72.1761H78.6681H85.1601H91.6451H98.1371H104.629H111.121H117.606H124.098H130.583H137.075H143.567H150.052H156.544H163.036H169.528H176.02H182.505H188.997H195.489H201.981H208.466H214.958H221.45H227.935V259.547V253.062H221.45V259.519V259.547H214.958H208.466H201.981H195.489H188.997H182.505H176.02V253.062H182.505H188.997H195.489H201.981H208.466H214.958H221.45V253.027H227.942V246.542V240.05V233.558V227.073V220.581V214.089V207.604V201.112V194.619V188.127V181.642V175.15V168.658V162.166V155.681V149.189V142.697V136.212H221.45V142.697Z" fill="black"/>
<path d="M227.942 123.228V116.744H221.45V110.251H214.958V103.759H208.466V97.2745H201.981V90.7825H195.489H188.997H182.512H176.02H169.528V97.2745V103.759H176.02H182.512H188.997H195.489H201.981V110.251H208.466V116.744H214.958V123.228H221.45V129.721V136.213H227.942V129.721V123.228Z" fill="#DEDACB"/>
<path d="M227.943 110.251H221.451V116.743H227.943V110.251Z" fill="#F3F3EC"/>
<path d="M221.443 84.2903H214.958V90.7823H221.443V84.2903Z" fill="black"/>
<path d="M214.958 136.213H221.45V129.721V123.229H214.958V129.721V136.213Z" fill="black"/>
<path d="M214.958 253.062H208.466H201.981H195.489H188.997H182.505H176.02V259.547H182.505H188.997H195.489H201.981H208.466H214.958H221.45V259.519V253.062H214.958Z" fill="#747E7A"/>
<path d="M214.958 77.7983H208.466V84.2833H214.958V77.7983Z" fill="black"/>
<path d="M208.466 155.681V149.189H201.981H195.489V155.681V162.166H188.997V168.658H182.512V175.151H176.02V168.658H169.528V162.166H163.043V155.681V149.189H156.551H150.059V155.681H143.567H137.082H130.59H124.098H117.606V162.166H111.121V168.658H104.629H98.1372V162.166H91.6451H85.1602V155.681H78.6682V162.166V168.658V168.687H85.1602H91.6451H98.1372H104.629H111.121H117.606H124.077V162.251H130.569V155.759H137.061H143.546V162.251H150.038V168.687H150.052H150.059H156.544H156.551H163.036H163.043H169.528V175.151V175.179H176.02V181.643V181.671V188.127V188.156V194.62V188.127H182.512V181.643H188.997V188.127H195.489V194.62H201.981V201.112V207.604H208.466V214.089V220.581V227.073V233.558V240.05H201.981V246.542V246.57H208.466H214.958H221.45V246.542V240.05V233.558V227.073V220.581V214.089V207.604V201.112V194.62V188.127V181.643V175.151V168.658V162.166V155.681H214.958H208.466Z" fill="#F3F3EC"/>
<path d="M214.958 116.744H208.466V123.229H214.958V116.744Z" fill="black"/>
<path d="M201.981 220.581V227.073V233.558V240.05H208.466V233.558V227.073V220.581V214.089V207.604H201.981V214.089V220.581Z" fill="#DEDACB"/>
<path d="M208.474 110.251H201.981V116.743H208.474V110.251Z" fill="black"/>
<path d="M201.981 240.05H195.489V246.542V246.57H201.981V246.542V240.05Z" fill="#DEDACB"/>
<path d="M201.981 233.558V227.073V220.581V214.089V207.604H195.489V214.089V220.581V227.073V233.558V240.05H201.981V233.558Z" fill="black"/>
<path d="M195.489 207.604H201.981V201.112V194.62H195.489V201.112V207.604Z" fill="#DEDACB"/>
<path d="M195.489 77.7982H201.981H208.466V71.3132H201.981H195.489H188.997H182.512V77.7982H188.997H195.489Z" fill="black"/>
<path d="M188.997 201.112V207.604H195.489V201.112V194.62H188.997V201.112Z" fill="black"/>
<path d="M195.489 188.128H188.997V194.613H195.489V188.128Z" fill="#DEDACB"/>
<path d="M188.997 181.643H182.512V188.135H188.997V181.643Z" fill="#DEDACB"/>
<path d="M188.997 188.128H182.512V194.613H188.997V188.128Z" fill="black"/>
<path d="M182.512 194.62H176.02V201.112H182.512V194.62Z" fill="black"/>
<path d="M182.512 188.128H176.02V194.613H182.512V188.128Z" fill="#DEDACB"/>
<path d="M182.512 90.7824H188.997H195.489H201.981V97.2744H208.466V103.759H214.958V110.251H221.45V103.759V97.2744V90.7824H214.958V84.2904H208.466V77.7983H201.981H195.489H188.997H182.512V84.2904H176.02V90.7824H182.512Z" fill="#F3F3EC"/>
<path d="M182.512 77.7983H176.02V84.2833H182.512V77.7983Z" fill="black"/>
<path d="M176.02 110.252H182.512H188.997H195.489H201.981V103.76H195.489H188.997H182.512H176.02H169.528V110.252H176.02Z" fill="black"/>
<path d="M176.02 84.2903H169.528V90.7823H176.02V84.2903Z" fill="black"/>
<path d="M163.036 175.179H156.551H156.544H150.059H150.052H150.038V175.228V181.671H150.052H150.059H156.544H156.551H163.036V188.127V188.156V194.619V194.648V201.111V201.14V207.604V207.632V214.088V214.117V220.581V220.609V227.073V227.101V233.558V233.593V240.05V240.078V246.542V246.57V253.027V253.062H156.551H156.544H150.059H150.052H143.567H137.082H137.075H130.59H130.583H124.098H117.606H111.121H104.629H98.1373H91.6452H85.1603H78.6682H72.1762H65.6842H59.1992H52.7072H46.2151V259.547H52.7072H59.1992H65.6842H72.1762H78.6682H85.1603H91.6452H98.1373H104.629H111.121H117.606H124.098H130.583H130.59H137.075H137.082H143.567H150.052H150.059H156.544H156.551H163.036H163.043H169.528V259.519V253.062V253.027V246.57V246.542V240.078V240.05V233.593V233.558V227.101V227.073V220.609V220.581V214.117V214.088V207.632V207.604V201.14V201.111V194.648V194.619V188.156V188.127V181.671V181.642V175.179H163.043H163.036Z" fill="#747E7A"/>
<path d="M156.551 103.76H150.059V110.252V116.744V123.229H143.567V129.721H137.082V136.213H130.59V142.698H124.098V149.19H117.606V155.682H124.098H130.59H137.082H143.567H150.059V149.19H156.551H163.043V155.682V162.167H169.528V168.659H176.02V175.151H182.512V168.659H188.997V162.167H195.489V155.682V149.19H201.981H208.466V155.682H214.958H221.45V149.19V142.698V136.213H214.958V129.721V123.229H208.466V116.744H201.981V110.252H195.489H188.997H182.512H176.02H169.528V103.76H163.043H156.551Z" fill="#C9CAC2"/>
<path d="M156.551 103.759H163.043H169.528V97.2745V90.7825H163.043V97.2745H156.551H150.059V103.759H156.551Z" fill="black"/>
<path d="M150.059 77.7985V84.2906V90.7826H156.551V84.2906V77.7985V71.3136V64.8215H150.059V71.3136V77.7985Z" fill="black"/>
<path d="M150.052 90.7825H143.567V97.2745H150.052V90.7825Z" fill="black"/>
<path d="M143.567 58.3294V51.9223H143.546V51.8374H137.082V58.3294V64.8215V71.3135H143.567V77.7985V84.2905V90.7825H150.059V84.2905V77.7985V71.3135V64.8215H143.567V58.3294Z" fill="#C9CAC2"/>
<path d="M143.546 45.4302H137.082V51.8444H143.546V45.4302Z" fill="black"/>
<path d="M137.061 162.251H130.569V168.687H130.583H130.59H137.075H137.082H143.546V162.251H137.061Z" fill="#F3F3EC"/>
<path d="M130.562 32.446H124.098V38.8603H130.562V32.446Z" fill="#B4B4AC"/>
<path d="M117.592 116.744H111.121V116.821H117.592V116.744Z" fill="#F3F3EC"/>
<path d="M111.114 71.3132H104.629V77.8053H111.114V71.3132Z" fill="black"/>
<path d="M104.629 51.8374V58.3294H111.121H117.606V51.8374H111.121H104.629Z" fill="black"/>
<path d="M104.629 123.306H104.608V129.72H104.629V123.306Z" fill="#DEDACB"/>
<path d="M104.629 25.8831H111.121H117.606H124.098V19.3911H117.606H111.121H104.629H98.1373H91.6452V25.8831H98.1373H104.629Z" fill="black"/>
<path d="M98.116 123.306H91.6452V129.72H98.116V123.306Z" fill="#DEDACB"/>
<path d="M98.1373 84.2904H104.629V77.7983H98.1373H91.6452V84.2904H98.1373Z" fill="black"/>
<path d="M85.1602 162.167H91.6451H98.1372V168.659H104.629H111.121V162.167H117.606V155.682H111.121H104.629H98.1372H91.6451V149.19H85.1602V142.698H78.6682V149.19V155.682H85.1602V162.167Z" fill="#DEDACB"/>
<path d="M85.1389 25.9611V32.3683H85.1601H91.6451H98.1371H104.629H111.121H117.606H124.077V25.9611H130.569H130.59V25.8833H124.098H117.606H111.121H104.629H98.1371H91.6451H91.6239V25.9611H85.1389Z" fill="#B4B4AC"/>
<path d="M78.6682 142.697H85.1602V149.189H91.6452V155.681H98.1372H104.629H111.121H117.606V149.189H124.098V142.697H130.59V136.212H137.082V129.72H143.567V123.228H150.059V116.743V110.251H150.038V110.329H143.546V116.814H137.061H130.569H124.077V123.306H117.585H111.1H104.629V129.72H104.608V129.798H98.116V129.72H91.6452V123.306H91.624H85.139V116.814H78.647H72.1833V123.228V129.72V136.212H78.6682V142.697Z" fill="#F3F3EC"/>
<path d="M85.1603 116.744H85.1389V116.822H85.1603V116.744Z" fill="#F3F3EC"/>
<path d="M85.1602 71.3136V77.7985H91.6451V71.3136H98.1372V64.8215H91.6451H85.1602H78.6682V71.3136H85.1602Z" fill="black"/>
<path d="M72.1833 77.7983V84.2904H78.6682H85.1602V77.7983H78.6682H72.1833Z" fill="black"/>
<path d="M78.6682 58.3294H85.1602V51.8374H78.6682H72.1833V58.3294H78.6682Z" fill="black"/>
<path d="M72.1831 123.228V116.814H72.1548H65.6911V123.228V129.72V136.213H72.1831V129.72V123.228Z" fill="black"/>
<path d="M65.6911 110.251V110.329H72.1549H78.6469H85.139V116.743H85.1602V116.814H91.6239H98.1159H104.608H111.1H111.121V116.743H117.585V110.329H124.077H130.569H137.061H143.546V103.837V97.3451H150.038V103.837V110.251H150.059V103.759V97.2744H143.567H137.082V103.759H130.59H124.098V110.251H117.606H111.121H104.629H98.1372H91.6451H85.1602H78.6681V103.759H72.1832V97.2744H65.6911H59.1991V103.759H65.6911V110.251Z" fill="#DEDACB"/>
<path d="M65.6911 110.329V110.252V103.76H59.1991V110.252V116.744H65.6699V110.329H65.6911Z" fill="black"/>
<path d="M59.1992 97.2743H72.1832V103.759H78.6682V110.251H124.098V103.759H137.075V97.2743H143.567V71.3132H137.075V51.8442H117.606V58.3362H104.629V51.8442H117.606V45.3592H111.114V38.8672H98.1372V51.8442H91.6452V38.8672H78.6682V45.3592H72.1832V51.8442H85.1602V58.3362H59.1992V77.8052H52.7142V90.7822H59.1992V97.2743ZM85.1602 64.8212H98.1372V71.3132H91.6452V77.8052H104.629V71.3132H111.114V77.8052H104.629V84.2902H91.6452V77.8052H85.1602V84.2902H72.1832V77.8052H85.1602V71.3132H78.6682V64.8212H85.1602Z" fill="#F3F3EC"/>
<path d="M65.6911 58.3295H72.1832V51.8374V45.3525H78.6681V38.8604H85.1602H91.6451V45.3525V51.8374H98.1372V45.3525V38.8604H104.629H111.121V45.3525H117.606V51.8374H124.098H130.59H137.082V45.4303H137.061H130.569V38.9382V38.8604H124.098V32.4462H124.077V32.3684H117.606H111.121H104.629H98.1372H91.6451H85.1602H85.139V32.4462H78.6469V38.9382H72.1549H65.6911V45.3525V51.8374H59.1991V58.3295H65.6911Z" fill="#C9CAC2"/>
<path d="M65.6911 45.3522V38.938H65.6699V32.4459V25.961V19.4689V12.9769V6.48486H59.1779V12.9769H59.1991V19.3911V25.8832V32.3681V38.8602V45.3522V51.8372H65.6911V45.3522Z" fill="black"/>
<path d="M59.1992 90.7825H52.7142V97.2745V103.759H59.1992V97.2745V90.7825Z" fill="black"/>
<path d="M52.7142 77.7985H59.1992V71.3136V64.8215H52.7142V71.3136V77.7985Z" fill="#C9CAC2"/>
<path d="M59.1992 58.3294V51.8374H52.7142V58.3294V64.8215H59.1992V58.3294Z" fill="black"/>
<path d="M59.1992 253.062H65.6842H72.1762H78.6682H85.1603H91.6452H98.1373H104.629H111.121H117.606H124.098H130.583H130.59H137.075H137.082H143.567H150.052H150.059H156.544H156.551H163.036V253.027V246.57V246.542V240.078V240.05V233.593V233.558V227.101V227.073V220.609V220.581V214.117V214.089V207.632V207.604V201.14V201.112V194.648V194.62V188.156V188.128V181.671H156.551H156.544H150.059H150.052H150.038V181.72H143.546V188.205V194.697H150.038V201.189V207.674V214.166H143.546V220.658H137.061H130.569H124.077V214.166H117.585V207.674V201.189V194.697H124.077V188.205H130.569V181.72H124.077V181.671H117.606H111.121H104.629H98.1373H91.6452H85.1603H78.6682H72.1833H72.1762H65.6842H59.1992H52.7072H46.2151V188.156V194.648V201.14V207.632V214.117V220.609V227.101V233.593V240.078V246.57V253.062H52.7072H59.1992Z" fill="#9AA7A2"/>
<path d="M52.7143 77.7985V71.3136V64.8215H46.2222V71.3136V77.7985V84.2906V90.7826H52.7143V84.2906V77.7985Z" fill="black"/>
<path d="M52.7071 175.179H59.1991H65.684H72.1761H72.1832H78.6681H85.1601H91.6451H98.1371H104.629H111.121H117.606H124.077V168.736H130.569H137.061H143.546H150.038V175.179H150.052H150.059H156.544H156.551H163.036H163.043H169.528V175.15V168.687H163.043H163.036H156.551H156.544H150.059H150.052H150.038V162.251H143.546V168.687H137.082H137.075H130.59H130.583H130.569V162.251H124.077V168.687H117.606H111.121H104.629H98.1371H91.6451H85.1601H78.6681V168.658V162.166V155.681V149.189V142.697V136.212H72.1832V142.697V149.189V155.681V162.166V168.658V168.687H72.1761H65.684H59.1991H52.7071H46.215H39.723V175.179H46.215H52.7071Z" fill="black"/>
<path d="M46.215 253.062V246.57V240.078V233.593V227.101V220.609V214.117V207.632V201.14V194.648V188.156V181.671H52.7071H59.1991H65.684H72.1761H72.1832H78.6681H85.1601H91.6451H98.1371H104.629H111.121H117.606H124.077V175.228V175.179H117.606H111.121H104.629H98.1371H91.6451H85.1601H78.6681H72.1832H72.1761H65.684H59.1991H52.7071H46.215H39.723V181.671V188.156V194.648V201.14V207.632V214.117V220.609V227.101V233.593V240.078V246.57V253.062V259.547H46.215V253.062Z" fill="#DFEDE8"/>
<path d="M39.723 246.57V240.078V233.593V227.101V220.609V214.117V207.632V201.14V194.648V188.156V181.671V175.179H33.2381V181.671V188.156V194.648V201.14V207.632V214.117V220.609V227.101V233.593V240.078V246.57V253.062V259.547H39.723V253.062V246.57Z" fill="black"/>
<path d="M163.015 45.4302H156.53V51.9222H163.015V45.4302Z" fill="black"/>
<path d="M150.038 51.9221H143.567V58.3293V64.8213H150.059V58.4071H156.53V51.9221H150.038Z" fill="black"/>
<path d="M156.53 38.938H150.038V45.423H156.53V38.938Z" fill="black"/>
<path d="M143.546 175.228V181.72H150.038V181.671V175.228H143.546Z" fill="black"/>
<path d="M143.546 103.837V110.329H150.038V110.251V103.837H143.546Z" fill="#C72B36"/>
<path d="M150.038 97.3452H143.546V103.837H150.038V97.3452Z" fill="black"/>
<path d="M150.038 32.446H143.546V38.9381H150.038V32.446Z" fill="black"/>
<path d="M137.061 188.205H130.569H124.077V194.697H117.585V201.189V207.674V214.166H124.077V220.658H130.569H137.061H143.546V214.166H150.038V207.674V201.189V194.697H143.546V188.205H137.061Z" fill="#F7931A"/>
<path d="M137.061 181.72H130.569V188.205H137.061H143.546V181.72H137.061Z" fill="black"/>
<path d="M143.546 155.759H137.061H130.569V162.251H137.061H143.546V155.759Z" fill="black"/>
<path d="M137.061 110.329H130.569H124.077V116.814H130.569H137.061H143.546V110.329H137.061Z" fill="#C72B36"/>
<path d="M137.061 32.446H130.569V38.8603V38.9381V45.4301H137.061H137.082H143.546V51.8373V51.9221H143.567H150.038H156.53V45.4301H150.038V38.9381H143.546V32.446H137.061Z" fill="#F3F3EC"/>
<path d="M130.569 181.72V175.228H124.077V181.671V181.72H130.569Z" fill="black"/>
<path d="M130.569 175.228V181.72H137.061H143.546V175.228H150.038V175.179V168.736H143.546H137.061H130.569H124.077V175.179V175.228H130.569Z" fill="#F3F3EC"/>
<path d="M124.077 25.9612V32.3684V32.4461H124.098H130.569H137.061H143.546V25.9612H137.061H130.59H130.569H124.077Z" fill="black"/>
<path d="M117.585 116.814H111.121H111.1H104.608H98.1159H91.6239H85.1601H85.1389V123.306H91.6239H91.6451H98.1159H104.608H104.629H111.1H117.585H124.077V116.814H117.585Z" fill="#C72B36"/>
<path d="M124.077 110.329H117.585V116.743V116.814H124.077V110.329Z" fill="#CFBAA0"/>
<path d="M98.116 123.306V129.72V129.798H104.608V129.72V123.306H98.116Z" fill="#FFD541"/>
<path d="M91.6239 12.9771H85.1389V19.4691H91.6239V12.9771Z" fill="black"/>
<path d="M78.6469 25.9612V32.4461H85.1389V32.3684V25.9612H78.6469Z" fill="black"/>
<path d="M85.1389 6.48486H78.6469V12.9769H85.1389V6.48486Z" fill="black"/>
<path d="M72.1833 116.814H78.647H85.1391V116.743V110.329H78.647H72.155H65.6912H65.67V116.743V116.814H65.6912H72.155H72.1833Z" fill="#C72B36"/>
<path d="M78.647 32.446H72.1549V38.9381H78.647V32.446Z" fill="black"/>
<path d="M78.647 25.9612H72.1549V32.4532H78.647V25.9612Z" fill="#C77065"/>
<path d="M78.647 19.469H72.1549V25.954H78.647V19.469Z" fill="black"/>
<path d="M78.647 6.48496V0H72.155H65.67V6.48496H72.155H78.647Z" fill="black"/>
<path d="M65.67 12.9769V19.4689V25.961V32.4459V38.938H65.6912H72.155V32.4459V25.961V19.4689H78.647V25.961H85.1391H91.624V25.8832V19.4689H85.1391V12.9769H78.647V6.48486H72.155H65.67V12.9769Z" fill="#F3F3EC"/>
<path d="M140.413 202.71C140.689 200.864 139.282 199.874 137.365 199.209L137.988 196.706L136.467 196.324L135.859 198.756C135.456 198.657 135.046 198.565 134.643 198.466L135.251 196.013L133.73 195.631L133.108 198.127C132.776 198.049 132.45 197.978 132.139 197.901L130.039 197.37L129.636 198.997C129.636 198.997 130.767 199.259 130.739 199.273C131.354 199.428 131.467 199.838 131.446 200.157L130.739 203.007C130.781 203.021 130.838 203.035 130.894 203.056C130.845 203.042 130.788 203.028 130.732 203.014L129.735 207.002C129.657 207.186 129.466 207.469 129.035 207.363C129.049 207.384 127.931 207.087 127.931 207.087L127.175 208.827L129.155 209.322C129.522 209.414 129.883 209.513 130.237 209.605L129.607 212.137L131.128 212.518L131.75 210.015C132.167 210.128 132.57 210.234 132.959 210.333L132.337 212.822L133.858 213.204L134.487 210.68C137.082 211.168 139.034 210.97 139.855 208.629C140.519 206.741 139.819 205.652 138.454 204.937C139.451 204.711 140.201 204.053 140.399 202.703L140.413 202.71ZM136.934 207.589C136.46 209.477 133.278 208.459 132.252 208.205L133.087 204.852C134.119 205.107 137.429 205.623 136.934 207.589ZM137.408 202.688C136.976 204.407 134.331 203.537 133.469 203.318L134.225 200.277C135.081 200.489 137.853 200.892 137.408 202.681V202.688Z" fill="white"/>
</svg>
